<?xml version="1.0" encoding="UTF-8"?>
<svg xmlns="http://www.w3.org/2000/svg" xmlns:xlink="http://www.w3.org/1999/xlink" width="97px" height="68px" viewBox="0 0 97 68" version="1.1">
<g id="surface1">
<path style="fill-rule:evenodd;fill:rgb(60%,60%,100%);fill-opacity:1;stroke-width:10;stroke-linecap:butt;stroke-linejoin:miter;stroke:rgb(10.196078%,9.411765%,9.411765%);stroke-opacity:1;stroke-miterlimit:22.9256;" d="M 58006.977234 20258.990196 C 58014.748801 20009.634995 59021.166747 19295.911726 59122.19712 19242.158509 C 59670.092605 18948.008961 59324.257866 19101.802888 59658.435254 18709.105775 C 59813.866597 18526.942096 60023.69891 18413.463082 60167.472902 18170.080461 C 60330.675813 17898.328087 60330.675813 17811.725682 60544.393909 17553.411612 L 61313.779057 16329.032782 C 61368.180028 16205.101754 61372.065811 16108.047335 61422.580998 15979.636872 L 61647.956445 15697.432483 C 62720.432712 16088.636451 61741.215251 18038.683709 60377.305215 18894.255744 C 60109.186149 19062.98112 59992.612641 19236.18593 59736.150925 19436.267348 C 59425.288239 19679.649969 58617.045255 20188.812385 58006.977234 20258.990196 Z M 78648.259593 15141.982575 C 78465.627765 15380.885761 78275.22437 15580.96718 78286.881721 15857.198989 C 78578.315489 16122.978784 78290.767504 16066.239277 78869.749257 15515.268804 C 78881.406608 15501.830499 78900.835526 15485.405905 78916.37866 15471.967601 C 79246.670264 15156.914024 79250.556048 15104.653952 79712.964293 15138.996285 L 79806.223099 15149.4483 C 79720.735861 15052.39388 79658.563323 14992.668084 79639.134405 14834.394723 L 79767.365263 14305.821423 L 79887.824554 14225.191598 L 79973.311793 14143.068627 L 80132.62892 14083.342831 L 80245.316643 14019.1376 L 80373.547501 13959.411803 C 80595.037165 13768.289254 81240.077239 13341.249809 81515.967873 13199.401042 L 81628.655597 13118.771216 L 81745.229104 13063.524854 L 81881.231529 12985.881319 L 81982.261902 12912.717218 L 82126.035895 12841.046262 L 82230.952051 12770.868451 L 82359.182909 12702.183785 L 82491.299551 12640.964844 C 83116.910707 12222.884268 87092.067306 10253.426126 88090.713685 9803.989507 C 88525.921445 9609.880668 88658.038087 9487.442785 89143.761034 9485.94964 C 89198.162004 9306.77225 89085.47428 9423.237554 89330.278646 9311.251685 C 89540.110959 9214.197266 89543.996743 9241.073874 89792.686891 9214.197266 C 89695.542302 9097.731962 89645.027116 9123.115426 89870.402563 9115.649701 L 90014.176555 9079.814223 L 90165.722115 9018.595282 L 90340.582376 8934.979167 C 90418.298047 8791.637255 90301.72454 8906.609413 90507.67107 8861.815066 C 90620.358793 8785.664675 90616.47301 8785.664675 90818.533756 8718.473154 L 90900.135211 8739.377183 C 90826.305323 8593.048981 90791.333271 8633.363894 91078.881255 8658.747358 C 91187.683196 8509.432866 90904.020994 8694.582835 91323.685621 8478.076823 C 91428.601777 8422.830461 91541.289501 8386.994983 91673.406143 8327.269187 C 92007.58353 8183.927275 92112.499687 8092.845435 92559.364798 8043.571653 C 92699.253007 7735.983801 93041.201962 7918.14748 93554.125394 7223.835095 C 93709.556737 7013.301662 93565.782744 6899.822649 93414.237185 6772.905331 C 93200.519088 6596.714231 93130.574984 6539.974724 92788.626029 6433.961435 L 92299.017298 6413.057407 C 90620.358793 6289.126379 89260.334541 6796.79565 88257.802379 7035.698836 C 86641.316411 7422.423369 87511.731932 7414.957644 86342.111075 7623.997932 C 86342.111075 7732.997511 86377.083128 7698.655178 86151.70768 7664.312845 C 86225.537568 7791.230162 86260.50962 7764.353554 86019.591038 7730.011221 C 86077.877792 7850.955959 86112.849844 7824.07935 85883.588613 7794.216452 C 85934.1038 7907.695466 85969.075852 7880.818857 85755.357755 7856.928539 C 85798.101375 7970.407552 85836.95921 7945.024089 85623.241114 7924.12006 C 85658.213166 8028.640204 85693.185218 8003.25674 85495.010256 7988.325291 C 85529.982308 8098.818015 85572.725927 8077.913986 85370.665181 8058.503102 C 85405.637233 8171.982116 85460.038203 8157.050666 85257.977457 8130.174058 C 85308.492644 8254.105086 85362.893614 8237.680492 85141.40395 8204.831304 C 85207.462271 8333.241766 85261.863241 8318.310317 85028.716226 8277.995404 C 85106.431898 8418.351026 85160.832868 8400.433287 84904.371152 8352.65265 C 84989.858391 8488.528837 85028.716226 8466.131664 84776.140294 8419.844171 C 84865.513316 8552.734069 84896.599585 8525.85746 84644.023652 8484.049403 C 84721.739324 8616.9393 84764.482943 8594.542126 84519.678578 8552.734069 C 84601.280033 8684.130821 84632.366302 8655.761068 84383.676153 8618.432445 C 84449.734473 8745.349763 84488.592309 8719.966299 84255.445295 8684.130821 C 84317.617832 8808.061849 84356.475668 8784.17153 84131.10022 8751.322342 C 84197.158541 8876.746515 84236.016377 8852.856196 84002.869362 8818.513863 C 84065.041899 8943.938036 84103.899735 8918.554573 83870.752721 8887.198529 C 83932.925258 9006.650123 83967.89731 8981.266659 83742.521862 8952.896906 C 83796.922833 9075.334789 83843.552235 9055.923905 83618.176788 9023.074717 C 83672.577758 9141.033165 83715.321377 9118.635991 83497.717497 9088.773093 C 83559.890034 9214.197266 83610.405221 9196.279527 83381.14399 9160.444049 C 83451.088094 9294.827091 83501.603281 9275.416207 83256.798915 9233.60815 L 82650.616677 9736.797986 C 82518.500036 9824.893536 82596.215707 9781.592333 82456.327499 9856.249579 C 82386.383394 10032.440679 82456.327499 9936.879404 82230.952051 9981.673752 C 82285.353021 10093.65962 82331.982424 10077.235026 82129.921678 10051.851562 L 82129.921678 10066.783012 C 81955.061417 10205.645489 82098.83541 10132.481388 81923.975149 10213.111213 C 81655.856082 10335.549096 82040.548656 10214.604358 81636.427164 10269.85072 C 81733.571753 10411.699487 81772.429589 10387.809168 81512.082089 10337.042241 C 81620.88403 10483.370443 81667.513432 10460.973269 81387.737015 10411.699487 C 81492.653172 10556.534544 81543.168358 10522.19221 81263.391941 10522.19221 L 81201.219403 10565.493413 C 81158.475784 10740.191368 81263.391941 10732.725643 81003.044441 10680.465571 C 80964.186605 10892.492149 81053.559627 10714.807904 80894.242501 10886.51957 C 80606.694516 11197.093712 80140.400487 11167.230813 79848.966719 11549.475911 C 79619.705488 11846.611749 79946.111308 11642.050896 79538.104032 11861.543199 C 78741.518399 12288.582644 78321.853773 12742.498698 77937.161199 12867.922871 C 77738.986236 12203.473384 78384.02631 11352.380783 78368.483176 10853.670381 C 78500.599817 10386.316023 78656.031161 9942.851984 78772.604668 9453.100452 C 78865.863474 9075.334789 78776.490451 8388.488128 79079.58157 8121.215188 C 78947.464929 7683.723729 79188.383511 7328.355239 78803.690936 6940.137561 C 78516.142952 6651.960593 78112.02146 6444.41345 77268.806424 6463.824334 C 76009.812545 6492.194087 74898.478442 6971.493604 73876.517361 7165.602443 C 73779.372772 8313.830882 73818.230607 9193.293237 73573.426242 10360.93256 L 73052.731243 12254.240311 C 73044.959676 12270.664905 73009.987623 12322.924977 73002.216056 12312.472963 C 72994.444489 12302.020948 72971.129788 12352.787875 72947.815086 12370.705614 C 73204.276802 12929.141812 71580.019267 16063.252987 71102.067887 16503.730737 C 70410.398411 17144.289905 68102.242966 19479.568551 67554.347482 19699.060853 L 67499.946512 19788.649548 C 67142.454423 20254.510761 66765.533416 20275.41479 66485.756998 20629.290135 C 66291.467819 20875.659046 66392.498192 20841.316713 66062.206588 21074.247319 C 65848.488492 21225.054956 65704.714499 21362.424288 65522.082671 21477.396446 C 65436.595432 21937.28508 65409.394947 22264.283816 66186.551663 22413.598307 C 67406.687706 22648.022059 67542.690131 22444.95435 68486.93554 22491.241843 C 68486.93554 22377.762829 68448.077704 22424.050322 68720.082555 22415.091452 L 68863.856547 22392.694278 L 69458.381434 22301.612439 L 69594.38386 22203.064874 C 69955.761732 22146.325368 69683.756882 22241.886642 69936.332814 22131.393919 L 69994.619568 22070.174977 C 70289.93912 21998.504021 70080.106807 22085.106426 70289.93912 22002.983456 L 70977.722813 21678.971009 C 71172.011992 21498.300475 71459.559976 21177.274318 71743.222177 21060.809015 C 71778.19423 20924.932828 71696.592775 20948.823146 71902.539304 20944.343712 C 71832.5952 20838.330423 71785.965797 20857.741307 71980.254976 20862.220741 L 72108.485834 20798.01551 L 72232.830908 20744.262293 C 72236.716692 20630.78328 72182.315722 20657.659888 72384.376468 20657.659888 C 72442.663221 20505.359107 72337.747065 20584.495787 72590.322997 20402.332108 L 72745.75434 20303.784544 L 72714.668072 20276.907935 L 72870.099415 20167.908356 L 77261.034856 16016.965495 C 77486.410304 15839.28125 77548.582841 15869.144148 77820.587692 15706.391353 C 78104.249893 15533.186543 78376.254743 15342.063994 78648.259593 15141.982575 Z M 78193.622915 16012.48606 L 78049.848923 16348.443666 C 78228.594967 16242.430377 78193.622915 16444.00494 78279.110154 16163.293696 C 78341.282691 15958.732843 78422.884146 16114.019914 78154.765079 16010.992915 Z M 36405.906331 17150.262485 C 36394.24898 17275.686657 36475.850435 17209.988281 36332.076443 17286.138672 L 36188.30245 17360.795918 L 36164.987749 17354.823338 C 36114.472562 17493.685815 36196.074017 17463.822917 35974.584354 17477.261221 C 35920.183383 17586.2608 35982.355921 17502.644684 35877.439764 17607.164828 C 35869.668197 17614.630553 35826.924578 17654.945466 35819.15301 17644.493451 C 35811.381443 17634.041437 35776.409391 17669.876915 35753.09469 17681.822074 L 35764.75204 17671.37006 C 35710.35107 17814.711972 35795.838309 17787.835363 35578.234429 17795.301088 C 35508.290324 17962.533318 35535.490809 17910.273246 35325.658496 18002.848231 C 35352.858981 18268.628025 35399.488384 18174.559896 34968.166407 18464.230009 L 31941.141001 20647.207874 C 30942.494622 21241.47955 31801.252792 20868.193321 30499.515294 21437.081533 C 30064.307533 21628.204082 28883.029326 22268.763251 28234.103469 22101.53102 C 28525.537237 21668.518995 30161.452123 20998.096929 30538.37313 20632.276425 C 30787.063279 20388.893804 30456.771675 20532.235715 30919.17992 20375.455499 C 31070.72548 20324.688572 31074.611263 20338.126877 31171.755853 20308.263978 L 32415.206597 19342.199219 C 32578.409507 19148.09038 33297.279469 18794.215035 33553.741185 18585.174747 C 33829.631819 18358.21672 33922.890625 18189.491345 34183.238125 17962.533318 L 34303.697416 17916.245826 L 34459.128759 17846.068015 L 34575.702266 17768.424479 L 34680.618422 17692.274089 L 34785.534579 17620.603133 L 34836.049766 17611.644263 L 34983.709541 17508.617264 L 34983.709541 17519.069278 C 35014.79581 17357.809628 34921.537004 17381.699946 35146.912452 17380.206801 C 35216.856556 17304.056411 35244.057041 17277.179802 35317.886929 17211.481426 C 35504.404541 17053.208065 35364.516332 17314.508425 35426.688869 17129.358456 C 35438.34622 17105.468137 35465.546705 17102.481847 35484.975623 17089.043543 L 35473.318272 17089.043543 L 35745.323122 16853.126647 C 36491.393569 16214.060623 36234.931853 16563.456533 37101.461591 15807.925207 L 39440.703304 14337.177466 C 39829.281662 14153.520642 39677.736102 14171.438381 39965.284087 13935.521484 L 40377.177146 14059.452512 C 40101.286512 14220.712163 40062.428676 14189.35612 39809.852744 14402.875843 C 39261.957259 14868.737056 39623.335132 14822.449563 38344.912335 15588.432904 C 37839.76047 15890.048177 37400.666926 16364.86826 36887.743494 16776.976256 Z M 34536.84443 13020.223652 C 34463.014542 13194.921607 34303.697416 13508.482039 34253.182229 13666.7554 C 34124.951371 14057.959367 34365.869953 14023.617034 34447.471408 14332.698032 C 34692.275773 14332.698032 34630.103236 14305.821423 34560.159132 14440.204465 C 34793.306146 14402.875843 34738.905176 14384.958104 34680.618422 14513.368566 C 35201.313422 14470.067364 35267.371743 14365.54722 35593.777563 14468.574219 C 35220.74234 14602.957261 36048.414241 14320.752872 35372.287899 14532.77945 C 35065.310997 14628.340725 35314.001145 14537.258885 35061.425213 14638.792739 L 36102.815212 14577.573797 C 36044.528458 14459.615349 36005.670622 14482.012523 36227.160286 14513.368566 C 36164.987749 14383.464959 36106.700995 14396.903263 36339.84801 14438.71132 C 36767.284203 13648.837661 38006.849164 13181.483303 39141.497969 12746.978133 C 39530.076326 12597.663641 39840.939012 12399.075368 40353.862445 12454.321729 C 40365.519795 12470.746324 40373.291362 12496.129787 40373.291362 12506.581801 L 40384.948713 12605.129366 C 40338.31931 12760.416437 39941.969385 12957.511566 39720.479722 13057.552275 C 39366.873416 13215.825636 38920.008305 13351.701823 38636.346104 13493.55059 C 38360.45547 13629.426777 37917.476142 13893.713427 37742.615881 14046.014208 L 37078.146889 14492.464537 C 36864.428793 14592.505247 37132.547859 14510.382276 36852.771442 14571.601218 C 36767.284203 14758.244332 36856.657225 14692.545956 36569.109241 14761.230622 C 36460.307301 14955.339461 36592.423942 14811.997549 36402.020547 14946.380591 C 36277.675473 15032.982996 36320.419092 14986.695504 36192.188234 15032.982996 C 36250.474987 15165.872894 36316.533308 15156.914024 36087.272077 15112.119677 C 36098.929428 15330.118834 36176.6451 15221.119256 35947.383868 15259.941023 C 35858.010846 15458.529297 35041.996295 16033.390089 34750.562527 16239.444087 C 34455.242975 16444.00494 34416.385139 16532.10049 34144.380289 16726.209329 C 33390.538275 17262.248353 33355.566223 17065.153225 32263.661038 18165.601026 C 31906.168949 18528.435241 31913.940516 18352.244141 31560.33421 18601.599341 C 31334.958763 18761.365847 31245.585741 18913.666628 30950.266189 19091.350873 C 29535.840967 19936.470895 29116.176341 20493.413948 27888.26873 21116.055377 C 27352.030597 21386.314606 28047.585857 21183.246898 26757.505709 21731.231081 C 26190.181307 21971.627413 25677.257875 22161.256817 24954.50213 22386.721699 L 24907.872727 22997.417969 C 26497.15821 23313.964691 29073.432721 22958.596201 30476.200592 22379.255974 C 30569.459398 22341.927351 30596.659883 22322.516468 30682.147122 22279.215265 C 30701.57604 22270.256396 30728.776525 22255.324946 30748.205443 22246.366077 C 30763.748577 22237.407207 30790.949062 22222.475758 30810.37798 22213.516889 L 31272.786226 21995.517731 C 31952.798352 21658.066981 31972.227269 21719.285922 32551.209022 21317.62994 C 32694.983015 21220.575521 32636.696261 21251.931564 32796.013388 21175.781173 C 33200.13488 20984.658624 32966.987865 21172.794884 33223.449581 20935.384842 C 33468.253947 20706.93367 33165.162828 20857.741307 33588.713237 20653.180453 C 34233.753311 20338.126877 34163.809207 20267.949066 34863.250251 19837.92333 C 35372.287899 19524.362898 35290.686444 19519.883464 35527.719242 19254.103669 L 37692.100694 17483.233801 C 38006.849164 17320.481005 37905.818791 17423.508004 38123.422671 17239.85118 C 38508.115246 16914.345588 39366.873416 15894.527612 39930.312035 15763.130859 C 39973.055654 15609.336933 39883.682632 15621.282093 40124.601213 15666.07644 C 40046.885542 15524.227673 39976.941438 15542.145412 40229.51737 15564.542586 C 40342.205094 15264.420458 42630.93162 13621.961052 43279.857478 13233.743375 L 43415.859903 13136.688955 C 43637.349567 12909.730928 43443.060388 13091.894608 43699.522104 12960.497855 C 43936.554902 12841.046262 43796.666694 12948.552696 44025.927925 12785.7999 C 44360.105312 12543.910424 44049.242626 12576.759612 44604.909677 12503.595512 C 44589.366543 12385.637063 44550.508707 12430.431411 44806.970423 12408.034237 C 44946.858632 12233.336282 45661.84281 12078.049211 45704.58643 12000.405676 C 45716.24378 11980.994792 45755.101616 11985.474226 45782.302101 11976.515357 C 45731.786915 11673.406939 45743.444265 11725.667011 45576.355572 11500.202129 C 45160.576729 11504.681564 45339.322773 11539.023897 45327.665423 11431.517463 C 44896.343446 11435.996898 45020.68852 11488.25697 44822.513558 11368.805377 L 39809.852744 11379.257391 C 38407.084873 11507.667854 37765.930582 11573.36623 36646.824912 11943.666169 C 36009.556406 12154.199602 35850.239279 12142.254442 35372.287899 12414.006817 C 34871.021818 12699.197495 34940.965922 12620.060815 34536.84443 13020.223652 Z M 46353.512287 7516.491498 C 46011.563332 8724.445734 43683.97897 8198.858724 42700.875725 8333.241766 C 41947.033711 8436.268765 41165.991212 8260.077665 40804.613339 7994.297871 C 40777.412854 7976.380132 40439.349683 7679.244294 40520.951138 7470.204006 C 40598.66681 7259.670573 41029.988787 7179.040748 41321.422555 7120.808096 C 42098.57927 7411.971354 41554.56957 7535.902382 42669.789456 7552.326976 C 42669.789456 6863.987171 40299.461474 5899.415556 43730.608373 5980.045381 C 44352.333745 5993.483686 44740.912103 6084.565525 44954.630199 6308.537263 C 45370.409042 6744.535578 43800.552477 7129.766965 44196.902402 7464.231426 C 44950.744416 8103.297449 45117.83311 6617.61826 46353.512287 7516.491498 Z M 41982.005763 5199.130591 C 41333.079906 5923.305875 38978.295058 5488.800705 39724.365505 4539.160539 C 40066.31446 4101.669079 41286.450503 4064.340456 41783.830801 4398.804917 C 41982.005763 4531.694815 42222.924345 4931.857652 41982.005763 5199.130591 Z M 44861.371394 4994.569738 C 44465.021469 4053.888442 47134.554786 3867.245328 47410.44542 4794.48832 C 47558.105196 5270.801547 47192.84154 5578.3894 46365.169638 5627.663182 C 45521.954602 5678.430109 45012.916953 5357.403952 44861.371394 4994.569738 Z M 35605.434914 1921.677505 C 35609.320697 2090.40288 35679.264802 1987.375881 35523.833459 2142.662952 C 35376.173683 2290.484298 35543.262377 2163.566981 35314.001145 2226.279067 C 35247.942825 2439.79879 35314.001145 2375.593559 35069.19678 2518.93547 C 35026.453161 2966.878945 34801.077713 2674.222541 35193.541855 3195.330116 C 35088.625698 3662.684475 35753.09469 4006.107805 36075.614727 4182.298905 C 36786.713121 4570.516582 36728.426367 4627.256089 36522.479838 5403.691445 C 36308.761741 5888.963542 36514.708271 6507.125536 36856.657225 6935.658127 C 36868.314576 6950.589576 36883.85771 6968.507315 36895.515061 6983.438764 L 37058.717971 7229.807675 C 37490.039948 8001.763595 37695.986478 8097.32487 38613.031402 8604.994141 C 40633.638862 9721.866536 40944.501548 9441.155293 41678.914644 9642.729856 C 41682.800428 9642.729856 43000.08106 10192.207184 43722.836806 9848.783854 C 43998.72744 9859.235869 43990.955872 9811.455231 43901.58285 9932.399969 L 44604.909677 9899.550781 C 45393.723744 9436.675858 44737.026319 9711.414522 45836.703071 9559.113741 C 46761.519563 9429.210133 48587.837844 8488.528837 49143.504895 8062.982537 C 49318.365156 7928.599494 49407.738178 7882.312002 49524.311686 7788.243873 L 49800.20232 7473.190296 C 50810.50605 6251.797756 50247.067431 5835.210325 50328.668886 4524.22909 C 50752.219296 4325.640816 51296.228997 4215.148093 51537.147578 3894.121936 C 51766.408809 3591.013519 52123.900898 3198.316406 52011.213175 2895.207989 L 51964.583772 2881.769684 C 51855.781832 2583.140702 51894.639667 2759.331801 51743.094108 2493.552007 C 51614.86325 2265.100835 51610.977466 2421.881051 51649.835302 2163.566981 C 51463.31769 2163.566981 51525.490228 2182.977865 51548.804929 2066.512561 C 51354.51575 2070.991996 51408.91672 2088.909735 51463.31769 1979.910156 C 51241.828027 1991.855316 51280.685862 2023.211359 51311.772131 1908.2392 C 51094.168251 1950.047258 51125.254519 1976.923866 51167.998139 1857.472273 C 50969.823176 1824.623085 50993.137878 1915.704925 51004.795228 1812.677926 C 50705.589893 1799.239622 50748.333512 1848.513404 50783.305565 1708.157782 C 50546.272766 1755.938419 50561.815901 1800.732767 50604.55952 1675.308594 C 50196.552244 1609.610218 49683.628812 1467.761451 49291.164671 1478.213465 C 49225.10635 1479.70661 48700.525567 1543.911841 48560.637359 1564.81587 C 48047.713926 1636.486826 48463.492769 1646.93884 47911.711501 1640.966261 C 47931.140419 1772.363013 47969.998255 1733.541245 47709.650755 1696.212623 C 47799.023778 1833.581955 47872.853666 1826.11623 47620.277733 1782.815028 C 47682.45027 1914.21178 47732.965457 1896.294041 47499.818442 1851.499694 C 47585.305681 1991.855316 47600.848815 1935.115809 47278.328778 1948.554113 C 47188.955756 2070.991996 46881.978853 2194.923024 46707.118592 2375.593559 C 45218.863483 2372.607269 43971.526954 2226.279067 43579.062813 2220.306487 C 43221.570724 2214.333908 42801.906098 2309.895182 42211.266994 2311.388327 C 41682.800428 2312.881472 41224.277966 2308.402037 40691.925616 2326.319776 C 39708.822371 1841.047679 40081.857594 1700.692057 38356.569686 1476.72032 C 36852.771442 1281.118336 36475.850435 1735.03439 35605.434914 1921.677505 Z M 87818.708834 8452.693359 C 87931.396558 8164.516391 88665.809654 7939.051509 89306.963944 7883.805147 C 89287.535026 8295.913143 89198.162004 8198.858724 88665.809654 8410.885302 C 88358.832752 8533.323185 88261.688162 8603.500996 87818.708834 8452.693359 Z M 76235.187992 11401.654565 L 76118.614485 11725.667011 C 76033.127246 12069.090342 75683.406724 13288.989737 75450.25971 13478.619141 C 75458.031277 13635.399357 75489.117545 13508.482039 75423.059225 13678.700559 C 75419.173441 13690.645718 75380.315605 13732.453776 75376.429822 13723.494907 C 75372.544038 13714.536037 75333.686202 13748.87837 75318.143068 13760.823529 L 75061.681352 14816.476984 C 75197.683777 14894.120519 75613.46262 15282.338197 75737.807694 15404.77608 L 74245.666801 16641.100069 C 73973.661951 16891.948415 73934.804115 17121.892731 73674.456615 17350.343903 C 73433.538033 17565.356771 73165.418967 17641.507161 72858.442064 17937.149854 C 72493.178408 18280.573185 72197.858856 18691.188036 71789.85158 19059.99483 C 71339.100685 19461.650812 70958.293895 19672.184245 70604.687589 20136.552313 C 69920.78968 20624.8107 69963.533299 21027.959827 68840.541846 21245.958984 L 68401.448301 21220.575521 C 68420.877219 20918.960248 68494.707107 20798.01551 68832.770278 20648.701019 C 68945.458002 20530.74257 68980.430054 20468.030484 69104.775129 20367.989775 C 69524.439755 20132.072878 69675.985315 19845.389055 70041.248971 19606.485869 L 70258.852851 19334.733494 L 70379.312142 19248.131089 L 70433.713112 19109.268612 L 70647.431209 19000.269033 C 70884.464007 18774.804151 71203.09826 18468.709444 71475.103111 18179.039331 L 71653.849155 18038.683709 L 73616.169861 15994.568321 L 73577.312026 15993.075176 L 73709.428667 15839.28125 C 73689.999749 15421.200674 74129.093294 15179.311198 74319.496689 14711.95684 C 74498.242733 14281.931104 74711.96083 13862.357384 74836.305905 13451.742532 C 74948.993628 13070.990579 75034.480867 12651.416858 75116.082322 12263.19918 C 75158.825941 12076.556066 75193.797994 11889.912952 75232.655829 11704.762983 C 75279.285232 11476.311811 75232.655829 11338.942479 75446.373926 11216.504596 C 75477.460195 10885.026425 75621.234187 10592.370021 75640.663105 10156.371706 C 75656.206239 9796.523782 75656.206239 9424.730699 75695.064075 9064.882774 C 75768.893963 8316.817172 75302.599934 7398.53305 76946.286387 7607.573338 C 77090.060379 7937.558364 76503.307059 11217.997741 76235.187992 11401.654565 Z M 7981.399467 22592.775697 C 7946.427414 22164.243107 10347.841665 19946.922909 10876.308231 19361.610103 C 11358.145395 18828.557368 11952.670282 18450.791705 12523.880468 17866.972044 L 16557.323821 13974.343252 C 16961.445312 13481.60543 16852.643372 13905.658586 17493.797663 13259.126838 C 18010.606878 12743.991843 18632.332251 12221.391123 19067.540011 11719.694432 C 19697.036951 11002.984873 19596.006578 11394.18884 19969.041801 10982.080844 C 20295.447621 10623.726065 20268.247136 10404.233762 20874.429374 10237.001532 C 20987.117098 10353.466835 21045.403852 10398.261183 20843.343106 10628.205499 C 20695.68333 10796.930875 20540.251987 10856.656671 20388.706427 11004.478018 C 19988.470719 11403.14771 19856.354077 11383.736826 19541.605607 11771.954504 C 18811.078295 12687.252336 17350.02367 13836.97392 16755.498783 14486.491958 C 16623.382141 14632.820159 16588.410089 14786.614085 16471.836582 14956.832606 C 16180.402814 15376.406327 15337.187777 15875.116728 14901.980017 16558.977099 L 11894.383528 19776.704389 C 11552.434574 20088.771676 11393.117447 20197.771255 11066.711627 20557.619179 C 10553.788194 21125.014246 9442.454091 21741.683096 9158.79189 21979.093137 C 8797.414018 22280.70841 8614.78219 22465.858379 7981.399467 22592.775697 Z M 21185.29206 10059.317287 C 21193.063628 9335.142004 21931.362507 9239.580729 21919.705156 8404.912722 C 21915.819373 8048.051088 21301.865568 7279.081457 23951.969967 7613.545918 C 23963.627318 7631.463657 23975.284669 7656.84712 23979.170452 7671.778569 C 23994.713586 7735.983801 24150.144929 7759.874119 23889.79743 8049.544233 C 23808.195975 8139.132927 23610.021012 8275.009115 23528.419557 8336.228056 C 23097.09758 8658.747358 21740.959112 9930.906824 21185.29206 10059.317287 Z M 30864.77895 7988.325291 C 30682.147122 7804.668467 30682.147122 7924.12006 30588.888316 7646.395106 C 32628.924694 7373.149586 32131.544396 8297.406288 31097.925965 8382.515548 Z M 19475.547287 6828.151693 C 19187.999302 6998.370213 18962.623855 7334.327819 19246.286056 7568.75157 C 19592.120794 7850.955959 20155.559413 7937.558364 19996.242286 8382.515548 C 19836.925159 8821.500153 19075.311578 9805.482652 18706.162138 10095.152765 C 18523.53031 10238.494677 18426.385721 10241.480967 18204.896057 10438.576095 C 17672.543707 10905.930453 16910.930126 11739.105316 16157.088112 12257.226601 C 14940.837853 12300.527803 14070.422331 12237.815717 13534.184198 12684.266046 C 12722.05543 13357.674403 13541.955765 13613.002183 14124.823301 13923.576325 C 14027.678712 14332.698032 11229.914537 16884.48269 10996.767522 17041.262906 C 10522.701926 17360.795918 9846.575583 18146.190142 9442.454091 18591.147327 C 8952.845361 19134.652076 8424.378794 19552.732652 7794.881855 20088.771676 C 7278.072639 20529.249426 5156.434806 22776.432521 4985.460329 23345.320734 C 4387.049658 25319.25831 8408.83566 24456.22055 10546.016627 22803.30913 C 10942.366552 22495.721278 11159.970432 22491.241843 11517.462521 22168.722541 C 11766.15267 21943.257659 11754.49532 21953.709674 11995.413901 21805.888327 C 12469.479498 21513.231924 12403.421177 21305.684781 13231.093079 20702.454236 C 15026.325091 19392.966146 14832.035912 18710.59892 15348.845128 18234.285692 L 17214.021245 16237.950942 C 19121.940981 14676.121362 18675.07587 13881.768267 20485.851017 13865.343673 C 22370.456051 13848.919079 25362.509405 14123.657744 26015.321046 13288.989737 C 26302.869031 12921.676088 26085.265151 12629.019684 25583.999069 12469.253179 C 25039.989369 12294.555224 24340.548325 12400.568513 23524.533774 12379.664484 C 23069.897095 12367.719324 21682.672358 12403.554802 21480.611612 12233.336282 C 21344.609187 12118.364124 21503.926314 11928.73472 21636.042955 11818.241996 C 21737.073328 11730.146446 21791.474298 11710.735562 21861.418403 11658.47549 C 22257.768328 11364.325942 22941.666237 10558.027688 23676.079333 9987.646331 C 24270.60422 9523.278263 24826.271272 9006.650123 25416.910376 8536.309475 C 25957.034293 8107.776884 27476.375671 7861.407973 28696.511714 8204.831304 C 30312.997682 8658.747358 28059.243208 10541.603094 30464.543242 10568.479703 C 31840.110628 10583.411152 32150.973314 9738.291131 32586.181075 9342.607728 C 32858.185925 9093.252528 33029.160402 8834.938457 33277.850551 8555.720358 C 33662.543125 8122.708333 34727.247825 7283.560892 33689.74361 6863.987171 C 32578.409507 6414.550551 22817.321163 6638.522289 21119.23374 6617.61826 C 20357.620159 6608.65939 19899.097697 6580.289637 19475.547287 6828.151693 Z M 56681.925034 19443.733073 C 55788.194811 20108.18256 54408.741642 20929.412263 52197.730786 20777.111481 C 51094.168251 20700.961091 51101.939818 19934.97775 51230.170676 19454.185087 L 51467.203474 19167.501264 C 51506.06131 18738.968673 52178.301869 17892.355507 52582.423361 17480.247511 C 52877.742912 17177.139093 53787.016269 16127.458218 54090.107388 15967.691713 C 54128.965224 15822.856656 54043.477985 15840.774395 54253.310299 15851.226409 C 54171.708843 15715.350222 54086.221605 15730.281671 54307.711269 15736.254251 C 54455.371045 15434.638978 55100.411118 14832.901578 55403.502237 14508.889131 L 56849.013728 13430.838503 C 57132.675929 13554.769531 57113.247011 13704.084023 57944.804696 13880.275123 C 58706.418277 14044.521063 58718.075628 13868.329963 59180.483874 14232.657322 C 59429.174023 14428.259306 59701.178873 14637.299594 59736.150925 14943.394301 C 59767.237194 15234.55756 59790.551895 15757.15828 59580.719582 15954.253408 C 59639.006336 16194.64974 59367.001486 16648.565794 59238.770628 16977.057675 C 59157.169172 17190.577397 58667.560442 17663.904335 58473.271263 17865.478899 C 58100.23604 18261.162301 57117.132795 19307.856886 56681.925034 19443.733073 Z M 54742.919029 13344.236098 C 54323.254403 13735.440066 54296.053918 13880.275123 53790.902053 14162.479511 C 53720.957949 14573.094363 52508.593473 15409.255515 52182.187652 15760.14457 L 51657.606869 16366.361405 C 51618.749034 16400.703738 51579.891198 16417.128332 51509.947093 16488.799288 L 51218.513325 16942.715342 C 51059.196198 17189.084252 50903.764855 17362.289062 50728.904594 17563.863626 C 50375.298289 17977.464767 50223.752729 18495.586052 49784.659185 18834.529948 C 49504.882768 18974.88557 48595.609411 18821.091644 47849.538964 19567.664101 C 47600.848815 19817.019301 47830.110046 19815.526157 47398.788069 19908.101141 C 47115.125868 19464.637102 48646.124597 18389.572763 49326.136723 17699.739813 L 50767.76243 16164.786841 C 51148.569221 15801.952627 50892.107505 16299.169884 51614.86325 15461.515587 L 52862.199778 14434.231886 C 53192.491382 14177.41096 52842.77086 14208.767004 53332.379591 14126.644033 C 53363.465859 13863.850528 53258.549703 13859.371094 53499.468285 13829.508195 C 53511.125635 13813.083601 53534.440337 13769.782399 53542.211904 13780.234413 C 53604.384441 13862.357384 53518.897203 13787.700138 53798.67362 13565.221546 C 54016.2775 13392.016736 53752.044217 13487.57801 54086.221605 13377.085286 C 54121.193657 13233.743375 54035.706418 13254.647403 54261.081866 13266.592563 L 54319.368619 13159.086129 L 54400.970074 13070.990579 C 54579.716119 12803.717639 54812.863134 12667.841452 55139.268954 12452.828585 C 55605.562983 12149.720167 55504.53261 11983.981081 56273.917758 11903.351256 C 56192.316303 12488.664062 55959.169289 12160.172181 55535.618879 12666.348307 Z M 64162.058419 9969.728592 L 63649.134987 10850.684092 L 63520.904129 10910.409888 L 63381.01592 10977.601409 L 63256.670846 11046.286075 C 62883.635622 11298.627566 62040.420586 11906.337546 61309.893274 12092.98066 C 60521.079208 12294.555224 59098.882419 12678.293467 58306.182569 12381.157629 C 57968.119398 12154.199602 58690.875143 11704.762983 59258.199545 11126.915901 C 59996.498425 10372.877719 60085.871447 10534.13737 60245.188574 10231.028952 C 60342.333163 10053.344707 60272.389059 10013.029795 60423.934618 9899.550781 C 60493.878723 9736.797986 60524.964991 9641.236711 60835.827678 9545.675437 C 60820.284543 9317.224265 60754.226222 9412.785539 60967.944319 9406.81296 C 60967.944319 9142.52631 60843.599245 9264.964193 61084.517826 9206.731541 C 61072.860476 8903.623123 60967.944319 9026.061006 61236.063386 8939.458601 C 61201.091334 8820.007008 61135.033013 8828.965878 61337.093759 8858.828776 C 61325.436408 8628.884459 61259.378087 8737.884038 61461.438833 8700.555415 C 61298.235923 7885.298292 61640.184878 7864.394263 62864.206705 8152.571232 C 63497.589428 8301.885723 64173.71577 8597.528416 64123.200583 9020.088427 C 64301.946628 9164.923483 64220.345173 9029.047296 64274.746143 9287.361366 C 64286.403494 9356.046032 64278.631927 9493.415365 64274.746143 9563.593176 C 64259.203009 9732.318551 64235.888307 9839.824985 64162.058419 9969.728592 Z M 66007.805618 8730.418313 C 66765.533416 8964.842065 66847.134871 9918.961665 66400.269759 10486.356733 C 66209.866364 10729.739354 66104.950208 10807.382889 65693.057148 10885.026425 C 66163.236961 10032.440679 65867.917409 9081.307368 66007.805618 8730.418313 Z M 51995.67004 10193.700329 C 51844.124481 9871.181028 51793.609294 9696.483073 52096.700413 9379.936351 C 52349.276346 9121.622281 52399.791532 8991.718673 53064.260524 9006.650123 C 52947.687017 9224.64928 52691.225301 9390.388366 52528.02239 9612.866958 C 52143.329816 10142.933402 52784.484107 10007.057215 51995.67004 10193.700329 Z M 54704.061193 10967.149395 C 53996.848582 10796.930875 54117.307873 10295.234184 54397.084291 9868.194738 C 54987.723395 8967.828355 56301.118243 8500.473997 57944.804696 8176.46155 C 59083.339284 7953.982958 58749.161897 8073.434551 58931.793725 8167.502681 L 56751.869138 9508.346814 C 56009.684475 9957.783433 55465.674774 10514.726486 54704.061193 10967.149395 Z M 50045.006685 9424.730699 C 49998.377282 9739.784275 49936.204745 10062.303577 50033.349334 10375.864009 C 50142.151274 10716.301049 50371.412505 10771.547411 50561.815901 11026.875191 L 50693.932542 11101.532437 C 50709.475677 11111.984452 50736.676162 11128.409046 50756.105079 11138.86106 C 52730.083136 12331.883847 52217.159704 11639.064606 53196.377166 12082.528646 C 53107.004143 12258.719746 51863.553399 13233.743375 51517.718661 13383.057866 C 51428.345638 13772.768689 50888.221721 13999.726716 50398.61299 14534.272595 C 50231.524297 14716.436275 50266.496349 14767.203202 49901.232693 14873.216491 C 49998.377282 15019.544692 50013.920416 14979.229779 49749.687133 14923.983418 C 49823.517021 15061.35275 49874.032208 15029.996706 49613.684708 15029.996706 C 49695.286163 15467.488166 48564.523142 16227.498928 48203.14527 16545.538794 C 47787.366427 16911.359298 46967.466092 17683.315219 46699.347025 18120.806679 L 44503.879304 20481.468788 C 44150.272999 20838.330423 44111.415163 20918.960248 43843.296096 21302.698491 C 43458.603522 22097.051585 43831.638746 22928.733303 45634.642325 22385.228554 C 46893.636204 22005.969746 47006.323928 21481.875881 48102.114897 21102.617073 C 48339.147695 20895.06993 48288.632508 20863.713886 48618.924112 20768.152612 C 48949.215716 20911.494524 48906.472097 20835.344133 48960.873067 21089.178768 C 49415.509745 21314.64365 48988.073552 21275.821883 49749.687133 21587.88917 C 51331.201049 22234.420918 50161.580192 22119.448759 53763.701568 22295.639859 C 55279.157163 22370.297105 55376.301752 22195.59915 56650.838765 21995.517731 C 58481.04283 21707.340763 57925.375779 21595.354894 59122.19712 21345.999694 C 59044.481449 21219.082376 59098.882419 21310.164216 59215.455926 21290.753332 C 59537.975963 21080.219899 59879.924918 21038.411841 60738.683088 20450.112745 C 60824.170327 20391.880093 60886.342864 20344.099456 60971.830103 20303.784544 C 61239.94917 20169.401501 61061.203125 20247.045037 61251.60652 20199.2644 L 61834.474057 19863.306794 C 61912.189728 19654.266506 63629.706069 18302.970358 63851.195733 17302.563266 C 64026.055994 16511.196461 64216.459389 15583.95347 63668.563905 14810.504404 C 63559.761965 14661.189913 63322.729167 14317.766582 63058.495883 14264.013366 C 62899.178757 13875.795688 63120.668421 14328.218597 62988.551779 14005.699295 C 62794.2626 14028.096469 62868.092488 14043.027918 62817.577302 13923.576325 L 62840.892003 13917.603745 C 62817.577302 13907.151731 62774.833682 13872.809398 62763.176332 13884.754557 L 62623.288123 13813.083601 C 62607.744989 13802.631587 62576.65872 13784.713848 62561.115586 13772.768689 C 62390.141108 13641.371936 62518.371966 13807.111022 62390.141108 13581.64614 L 64678.867635 12900.772059 C 65362.765544 12678.293467 66408.041327 12364.733035 66819.934386 12082.528646 C 67430.002407 11668.927505 67325.086251 11843.62546 67939.040056 11256.819508 L 68141.100802 11023.888902 C 68716.196771 10375.864009 68723.968338 9929.41368 68599.623264 9084.293658 C 68347.047331 8455.679649 68040.070429 8198.858724 67367.82987 7836.02451 L 66462.442297 7301.478631 C 66019.462969 7071.534314 66454.67073 7234.287109 65949.518865 7108.862937 C 62156.994094 6172.661075 56969.473019 6184.606235 53324.608024 7311.930645 C 51405.030937 7904.709176 50880.450154 8222.749043 50045.006685 9424.730699 Z M 50045.006685 9424.730699 " transform="matrix(0.00100527,0,0,0.00261612,0,0.000000000000004197)"/>
</g>
</svg>
